<svg xmlns="http://www.w3.org/2000/svg" width="314" height="287" fill="none"><path fill="#89B99A" fill-rule="evenodd" d="M236.62 136.653c2.711-.024 5.49 2.672 7.443 4.259-5.083-3.399-13.132-3.277-18.96-4.095-5.671-.798-11.302-1.995-16.776-3.715-.12-.036-12.26-4.011-8.149-6.294 11.372-6.379 25.454 10.409 36.442 9.845Zm-78.907-52.324c2.137 5.241 11.6 30.907 2.403 32.739-7.319 1.458-13.598-14.161-13.992-19.38-.649-8.69-.252-17.362-1.464-26.04 5.095 3.905 10.514 6.39 13.053 12.681ZM68.336 243.06c-3.51 4.335-7.056 8.667-10.874 12.733 4.01-4.969 7.835-9.965 12.344-14.499l-1.47 1.766ZM304.174 42.902c-1.925-2.482-9.445.55-11.598 1.037-5.906 1.333-12.297 2.517-17.696.18-4.63-1.163 2.866-9.194 4.039-12.266.823-2.153 2.539-7.614 1.113-9.81-3.057-4.704-9.455.81-12.641 2.983-4.666 3.183-6.596 5.244-5.789-.599.868-6.28 7.452-16.86.792-22.424-5.674-4.739-14.491 4.259-17.918 7.874-6.464 6.806-9.464 14.506-10.843 23.671-.322 2.137-2.796 14.772-4.968 12.546-4.333-5.569-.903-13.745-4.325-19.746-1.945-3.41-4.623-5.1-6.258-8.938-1.615-3.788-3.246-10.58-8.468-10.991-3.315-.26-5.505 2.482-6.052 5.217-1.737 6.412-.431 12.185-.543 18.678-.084 4.751-3.206 8.323-2.045 13.212 1.871 7.451 4.313 15.266 5.576 23.025.396 2.433 1.739 13.505-3.024 11.34-2.682-1.219-2.404-11.58-2.587-13.4-.438-4.351-.373-8.693-2.992-12.462-1.501-2.16-3.991-2.992-5.15-4.688-3.423-5.015-3.192-13.515-6.018-19.023-2.538-4.942-9.258-16.923-15.159-18.095-8.079-1.605-5.04 9.393-4.513 14.216.585 5.34 1.483 10.211 1.009 15.421-.415 4.6-.086 8.327 1.678 12.795 3.257 8.255 8.165 15.375 12.283 22.896a.63.63 0 0 0-.03-.084c2.311 4.415 4.236 9.889 4.02 14.994-.362 8.557-3.324 4.2-5.924-1.624-3.923-8.78-6.48-18.168-10.356-26.947-1.381-3.127-3.037-6.3-5.916-8.34-1.931-1.367-4.321-1.035-5.821-1.863-5.217-2.874-24.427-35.434-32.493-25.728-4.356 5.24 6.458 16.443 8.738 20.363 3.642 6.261 7.506 10.581 7.137 18.013-2.118-1.967-5.029-.942-6.965-2.504-2.3-1.86-2.945-5.802-4.022-8.38-2.962-7.088-6.447-14.067-11.08-20.182-14.139-18.658-11.76 9.548-10.36 18.863.269 1.787.583 4.07.861 6.104.723 5.336-.518 6.203-1.281 10.92-1.297 8.025 8.163 18.613 13.053 24.362 1.507 1.776 24.757 30.585 14.564 30.344-5.14-.121-13.804-14.734-16.203-19.22-3.688-6.897-6.221-20.68-13.879-24.258-2.406-1.123-4.393.058-6.622-.828-5.208-2.065-8.74-10.218-12.507-14.033-7.666-7.764-17.085-6.685-10.672 5.911 2.54 4.984 3.8 8.31 5.358 13.735 1.78 6.189 7.368 9.377 9.94 14.799 2.125 4.481-1.182 2.084-.99 7.417.16 4.428 7.029 9.272 10.261 11.736 4.49 3.421 24.73 14.887 20.762 21.805-3.617 6.307-15.417-3.201-18.571-6.093-7.892-7.234-11.04-17-15.48-26.369-2.163-4.567-4.64-10.11-8.18-13.806-3.105-3.239-6.638-3.683-10.486-5.356-4.48-1.948-24.224-12.336-23.314.217.611 8.434 12.361 12.518 13.83 20.569-5.285-2.355-16.348-13.061-22.646-7.433-6.08 5.434 5.984 17.164 9.659 21.598 2.255 2.718 17.694 14.954 17.434 19.539-.272 4.788-5.813 3.073-9.014 2.438C49.407 145.145.38 133.076.598 143.068c.167 7.749 19.019 5.127 21.455 9.52.895 1.615-1.054 2.402-1.4 4.125-1.261 6.317.832 8.841 7.465 9.533-6.3 15.096 14.555 7.086 21.566 4.679 4.776-1.641 25.096-9.072 26.502 1.124.474 3.428-5.266 8.827-6.244 12.18-1.884 6.47 2.867 10.44 9.108 8.251 4.294-1.503 8.195-5.305 10.95-8.828 1.583-2.02 4.38-8.673 7.022-9.134-.263 10.95 6.124 5.289 11.951.583 4.358-3.52 15.213-13.089 21.691-9.283-5.072 7.039-12.002 12.644-17.541 19.29-6.063 7.28-12.373 14.079-19.367 20.96-13.262 13.046-26.555 27.267-38.223 41.688-5.708 7.053-11.89 13.774-18.008 20.472-2.208 2.414-16.072 13.25-11.214 17.652 6.572 5.954 17.98-16.56 22.672-19.166 22.302-25.367 46.07-49.451 67.687-75.304-.89 2.916.085 11.141 4.494 11.001-1.039 2.397-4.156 6.05-3.432 8.794 1.606 6.071 4.063.601 6.34.957 3.892.61.697 7.627-.023 10.486-3.361 13.326-3.992 27.888-4.858 41.596-.474 7.521 5.849 28.342 16.528 19.43 5.332-4.447 5.883-15.581 6.222-21.814.215-3.932-1.58-14.85 1.148-18.252 4.517 2.388 9.936 13.127 12.836 16.973 6.13 8.135 11.494 13.307 22.145 14.002 25.305 1.653-5.34-27.087-2.286-29.012 2.149-1.354 16.965 11.145 18.925 12.637 4.343 3.309 17.574 11.38 22.431 4.61 4.074-5.679-6.346-15.186-9.438-18.844-2.594-3.068-4.53-7.267-7.776-10.357-2.671-2.541-6.248-3.989-8.893-6.409-2.751-2.515-2.91-6.137-5.976-9.016-3.44-3.235-8.118-5.936-11.905-8.88-6.33-4.92-15.286-11.315-16.028-20.244 14.46 1.795 24.334 17.538 34.207 26.686 4.938 4.575 10.751 10.444 17.903 8.886 2.872-.627-.203-1.186 3.642-1.451.863-.06 2.032.445 2.867.641 5.995 1.411 11.737 3.597 17.681 5.16 3.687.972 15.515 5.288 18.821 1.741 5.993-6.434-19.883-22.599-24.457-26.183-3.461-2.708-7.624-5.026-10.891-7.838-2.998-2.582-4.005-6.025-8.037-7.926-5.22-2.461-11.289-3.305-16.731-5.153-7.32-2.485-13.414-6.131-19.507-10.815-2.524-1.941-8.65-6.116-7.325-9.628 2.131-5.64 11.739 1.568 14.461 3.112 8.061 4.576 15.604 11.869 25.572 14.877 10.311 3.116 15.607 13.248 25.101 17.784 3.43 1.637 5.36 1.793 8.976 1.127 4.024-.737 5.931-1.205 10.658-.003 4.284 1.091 24.955 7.806 23.382-1.835-.509-3.128-5.043-4.419-7.341-5.697-5.064-2.82-9.98-5.929-15.112-8.624-3.258-1.711-7.398-2.892-10.065-5.545-2.53-2.518-3.095-5.08-6.734-6.719-4.899-2.208-12.266-1.852-16.556-4.838-4.093-2.846-7.328-6.935-12.014-9.562-3.729-2.089-24.859-9.911-24.281-13.403 1.172-7.099 24.968 6.468 26.8 7.464 11.68 6.347 23.134 14.81 35.123 20.788 4.03 2.008 7.157 1.26 10.87 1.805 4.931.724 10.083 4.112 15.091 5.285 3.991.935 14.43 3.377 12.393-3.574-1.47-5.023-11.02-9.351-15.013-12.391-4.515-3.435-8.719-7.153-13.609-10.058-1.052-.626-3.369-1.416-4.141-2.28-2.13-2.398-.719-6.049-3.282-8.746 2.691 2.587 5.345 3.929 8.997 3.965.953.012 2.789-1.01 3.986-1.159 3.611-.452 7.864.758 11.48 1.169 5.08.569 30.678-.159 17.492-9.133-5.636-3.836-11.974-6.744-18.251-9.316-4.931-2.023-11.389-3.507-15.545-6.902-4.308-3.52-5.097-5.337-11.358-6.267-6.434-.956-15.512-.767-20.571-5.408-10.304-9.459 24.014-3.11 27.663-2.188 7.372 1.862 15.342 3.321 22.879 1.656 8.404-1.856 15.365-5.841 24.204-6.245 3.941-.177 16.855.227 16.629-6.105-.221-6.236-14.664-6.65-18.497-7.419-3.959-.793-8.459-1.063-12.264-2.223-3.453-1.054-6.089-3.282-9.455-4.581-9.539-3.688-17.645 1.016-27.157.575-5.022-.234-7.416-2.21-2.167-5.796 2.832-1.939 7.381-2.12 10.719-3.059 5.022-1.41 9.967-3.209 14.925-4.838 6.69-2.201 44.256-13.98 34.889-25.979Z" clip-rule="evenodd"/></svg>