<svg xmlns="http://www.w3.org/2000/svg" width="546" height="592" fill="none"><path fill="#89B99A" fill-rule="evenodd" d="M227.589 361.186c-1.121 1.86-.396 4.871-.1 6.862-.269-4.885 3.092-10.384 4.902-14.734 1.761-4.233 3.23-8.6 4.275-13.073.024-.097 2.231-10.08-1.014-8.174-9.022 5.248-3.201 21.775-8.063 29.119Zm-3.885-75.647c2.738 3.602 16.551 20.551 21.557 14.956 3.984-4.453-4.21-15.126-7.643-17.518-5.717-3.978-11.847-7.227-17.328-11.588.614 5.099.117 9.843 3.414 14.15Zm145.655 2.873c4.413-.658 8.839-1.343 13.193-2.323-5.054.746-10.05 1.353-15.007 2.619l1.814-.296Zm-233.811 81.255c-.925-2.335 4.225-6.287 5.436-7.573 3.323-3.53 6.741-7.454 7.331-12.125 1.084-3.665-7.496-1.76-10.088-2.199-1.818-.308-6.275-1.343-7.206-3.218-1.993-4.018 4.407-6.189 7.2-7.502 4.092-1.923 6.297-2.416 1.946-4.234-4.677-1.953-14.64-1.713-15.758-8.564-.952-5.836 8.832-8.259 12.716-9.152 7.317-1.691 13.839-.631 20.709 2.142 1.602.646 11.307 4.073 10.659 1.672-2.069-5.249-9.093-6.206-11.831-11.003-1.555-2.726-1.628-5.259-3.604-7.945-1.95-2.652-5.961-6.535-4.117-10.302 1.171-2.391 3.95-2.786 6.055-2.053 5.121 1.408 8.563 4.654 13.078 7.214 3.305 1.873 7.035 1.172 9.927 3.958 4.367 4.317 8.752 9.175 13.579 13.198 1.513 1.261 8.588 6.684 9.037 2.522.253-2.344-6.992-6.362-8.171-7.227-2.816-2.07-5.832-3.789-7.359-7.125-.876-1.913-.434-3.967-1.13-5.455-2.058-4.397-8.003-7.69-10.643-11.876-2.369-3.757-7.879-13.257-6.283-17.8 2.185-6.222 8.518.341 11.623 2.664 3.438 2.573 6.425 5.17 10.204 6.96 3.335 1.583 5.767 3.324 8.124 6.355 4.356 5.599 7.259 11.874 10.759 17.768a.479.479 0 0 1-.046-.055c2.098 3.387 5.082 6.937 8.684 8.862 6.038 3.227 4.244-.585 1.294-4.743-4.446-6.271-9.867-11.848-14.331-18.085-1.59-2.223-3.101-4.653-3.332-7.466-.154-1.887 1.047-3.4 1.088-4.77.146-4.764-14.444-31.233-4.478-32.85 5.381-.874 8.688 11.132 10.458 14.296 2.827 5.054 4.227 9.472 9.493 12.237-.492-2.259 1.4-3.85 1.112-5.818-.343-2.341-2.794-4.387-4.13-6.177-3.673-4.921-7.057-10.159-9.38-15.837-7.086-17.325 11.361-4.228 17.203.522 1.12.912 2.564 2.055 3.851 3.074 3.378 2.665 4.48 2.162 8.038 3.552 6.052 2.366 9.488 13.189 11.454 18.895.609 1.76 10.972 29.491 14.956 22.367 2.01-3.593-4.52-15.502-6.631-18.977-3.246-5.345-11.702-12.69-11.046-19.423.206-2.115 1.828-3.004 2.126-4.901.699-4.428-3.474-10.176-4.566-14.322-2.223-8.438 2.355-14.493 8.414-4.955 2.397 3.776 4.174 5.995 7.273 9.274 3.535 3.741 3.454 8.888 6.139 12.863 2.219 3.285 1.916.032 5.508 2.33 2.983 1.91 3.521 8.613 3.9 11.842.527 4.485.178 23.094 6.556 23.169 5.813.069 4.073-11.927 3.367-15.276-1.765-8.379-7.206-14.516-11.847-21.382-2.262-3.347-5.07-7.306-6.172-11.248-.965-3.456.168-6.072.583-9.404.483-3.879 1.373-21.71 9.643-15.983 5.557 3.848 3.583 13.606 8.527 17.89.531-4.6-2.333-16.576 4.105-18.63 6.216-1.984 9.378 11.097 10.933 15.431.953 2.659 3.089 18.272 6.351 19.956 3.406 1.757 4.482-2.758 5.348-5.223 1.483-4.215 13.14-42.913 19.929-38.703 5.266 3.262-4.216 15.192-2.183 18.656.746 1.273 2.082.249 3.409.712 4.861 1.695 5.746 4.164 3.522 9.017 12.956 1.791-1.049 12.912-5.562 16.767-3.074 2.625-16.463 13.614-10.018 18.725 2.167 1.719 8.221-.044 10.927.644 5.221 1.329 6.019 6.217 1.971 9.63-2.783 2.349-6.989 3.494-10.535 3.961-2.036.271-7.755-.503-9.148 1.131 7.645 4.267 1.147 6.37-4.465 8.474-4.197 1.575-15.204 5.17-15.222 11.181 6.91-.636 13.59-3.136 20.421-4.255 7.48-1.222 14.729-2.809 22.313-4.834 14.381-3.842 29.583-7.229 44.261-9.414 7.179-1.069 14.322-2.599 21.424-4.096 2.561-.541 15.666-5.696 16.718-.559 1.421 6.949-18.722 5.667-22.426 7.843-26.542 5.068-52.798 11.667-79.397 16.065 2.37.572 7.634 4.585 5.742 7.567 2.073.258 5.857-.407 7.451 1.207 3.525 3.574-1.24 3.045-1.923 4.76-1.165 2.93 4.966 3.578 7.228 4.243 10.541 3.097 20.821 8.578 30.61 13.549 5.37 2.73 17.127 15.546 6.644 19.287-5.232 1.869-13.12-2.274-17.549-4.573-2.795-1.449-9.578-7.122-13.031-6.623-.196 4.083 4.99 12.182 6.456 15.743 3.104 7.531 4.479 13.329.621 20.953-9.167 18.115-16.471-14.685-19.04-13.362-1.807.932.763 16.222.993 18.18.508 4.338.676 16.736-5.961 17.335-5.569.501-7.869-10.544-9.128-14.162-1.056-3.034-3.158-6.075-3.963-9.567-.662-2.874-.201-5.928-.79-8.734-.612-2.918-3.04-4.499-3.772-7.782-.826-3.686-.781-8.007-1.265-11.814-.809-6.362-1.564-15.134-7.408-19.272-4.653 10.697 2.162 23.899 4.439 34.42 1.138 5.263 2.811 11.654-1.173 15.951-1.601 1.725-.734-.621-2.483 1.921-.392.571-.52 1.581-.726 2.237-1.469 4.706-2.303 9.552-3.647 14.284-.833 2.936-2.679 12.843-6.467 13.681-6.869 1.517-7.458-22.886-8.063-27.495-.455-3.486-.355-7.298-.961-10.692-.556-3.115-2.516-5.209-2.182-8.76.432-4.598 2.322-9.124 3.266-13.626 1.27-6.056 1.242-11.738.499-17.841-.308-2.527-.688-8.446-3.644-8.96-4.751-.822-3.702 8.729-3.747 11.233-.133 7.415 1.815 15.577-.173 23.671-2.054 8.373 2.764 16.139 2.02 24.527-.269 3.029-.948 4.423-2.88 6.645-2.145 2.474-3.244 3.599-4.341 7.346-.994 3.396-4.789 20.373-10.785 15.372-1.946-1.622-.988-5.272-.932-7.375.121-4.636-.017-9.288.218-13.92.148-2.941 1.022-6.275.281-9.191-.703-2.767-2.236-4.197-1.882-7.371.474-4.275 3.719-9.208 3.411-13.379-.292-3.977-1.789-7.868-1.69-12.165.081-3.42 3.301-21.162.662-22.183-5.364-2.076-5.715 19.839-5.776 21.507-.387 10.629.775 21.962.007 32.655-.259 3.594-2.047 5.446-3.183 8.226-1.51 3.694-1.276 8.621-2.508 12.55-.982 3.131-3.552 11.319-7.506 7.091-2.859-3.054-1.95-11.395-2.417-15.383-.525-4.508-1.372-8.916-1.381-13.466-.003-.98.397-2.898.117-3.781-.783-2.443-3.871-2.953-4.684-5.816.685 2.906.528 5.281-.934 7.813-.38.662-1.831 1.512-2.421 2.276-1.782 2.306-2.68 5.729-3.871 8.389-1.676 3.733-12.601 21.082-13.409 8.347-.345-5.443.234-10.993 1.019-16.365.616-4.221 2.225-9.276 1.58-13.52-.669-4.399-1.598-5.681.311-10.375 1.962-4.823 5.789-11.004 4.654-16.377-2.315-10.945-11.919 15.29-12.771 18.18-1.72 5.838-3.961 11.925-8.176 16.444-4.7 5.039-10.278 8.219-14.155 14.147-1.727 2.645-6.707 11.711-10.974 8.982-4.202-2.685 1.394-12.809 2.426-15.763 1.066-3.052 2.712-6.263 3.464-9.357.68-2.809.22-5.531.696-8.379 1.347-8.074 7.885-11.75 11.455-18.486 1.884-3.557 1.499-6.01-3.107-3.848-2.488 1.164-4.465 4.226-6.471 6.146-3.016 2.889-6.267 5.566-9.407 8.322-4.24 3.718-27.646 24.827-32.09 13.496Z" clip-rule="evenodd"/><path fill="#02362C" fill-rule="evenodd" d="M414.912 431.175c-17.642-31.004-41.305-59.711-64.071-87.055 6.727 1.841 15.603.405 21.735-2.646 6.89-3.427 10.378-9.389 13.165-16.277.396-.977 2.985-11.051 4.876-10.508 3.481 1.001 4.485 23.21 4.86 25.924 1.339 9.69 3.409 19.182 5.579 28.717 4.681 20.552 9.77 41.162 13.856 61.845Zm-75.344-105.244c-4.92.346-8.638-6.613-11.81-10.206 5.312-.206 27.981-6.476 30.69-1.063 4.402 8.803-14.396 10.943-18.88 11.269ZM228.951 158.112c-.021 2.936-.022 14.269-4.603 10.755-3.1-2.381-4.79-13.039-5.751-16.309-1.961-6.662-4.974-14.868-4.63-21.899.653-13.306 9.381-4.228 11.372 2.87 2.197 7.826 3.649 16.425 3.612 24.583Zm35.005 58.289c5.79-3.627 3.466 3.143 1.29 6.372-6.12 9.086-7.474-1.439-1.29-6.372Zm-13.039-31.117c-1.225-6.602-.617-15.559 1.268-21.87 1.48-4.958 6.215-9.574 9.119-3.241 2.412 5.259-2.15 19.08-4.582 24.253-1.977 4.208-4.693 7.783-5.805.858Zm-25.149 2.022c1.083 12.667-9.944 17.305-9.583 2.842.223-8.849 7.648-15.385 9.583-2.842Zm23.318 76.344c.34 5.256-10.707 23.647-11.503 13.499-.227-2.894 10.916-18.237 11.503-13.499Zm-32.395-17.729c-3.78 2.45-14.162 10.638-18.091 8.981-6.279-2.649.89-10.071 3.68-11.98 3.048-2.088 11.401-7.198 15.602-6.556 7.705 1.18 2.705 6.785-1.191 9.555Zm-56.753-75.748c-9.373 3.995-12.669-7.165-14.692-13.829-1.323-4.359-5.998-13.475-1.088-16.587 8.827-5.6 18.678 23.191 15.78 30.416Zm31.066 1.314c-1.431-4.472-2.547-9.041-3.948-13.52-.835-2.664-5.201-12.047-4.675-14.277 1.664-7.075 7.379-3.541 10.702 1.645 3.41 5.325 6.975 16.434 6.616 22.544-.333 5.667-5.624 12.252-8.695 3.608Zm-17.289-47.03c-2.46-7.779 2.859-14.32 8.957-5.652 6.9 9.803-3.584 20.165-8.957 5.652Zm13.491 137.512c.357 7.115-23.763 17.84-29.215 14.563-7.178-4.314 7.563-9.682 11.66-11.812 3.462-1.796 16.545-10.907 17.555-2.751Zm-42.752-10.607c-6.121 1.723-12.396 4.117-18.692 4.981-8.648 1.184-8.574-3.669-2.104-8.768 5.655-4.456 16.23-5.533 22.978-8.23 5.391-2.156 21.028-14.505 24.93-10.681 8.792 8.615-21.333 21.014-27.112 22.698Zm1.633 27.729c.244 9.673-25.368 12.912-31.096 13.477 3.843-2.734 29.345-26.814 31.096-13.477Zm-48.47-48.767c-17.358-.578.081-13.216 5.932-15.55 4.246-1.697 14.239-5.465 18.559-1.913 11.336 9.324-20.026 17.633-24.49 17.463Zm1.971-35.348c.398-5.996 29.287-15.032 30.92-9.544 1.285 4.32-29.534 22.125-30.92 9.544Zm41.559 7.234c11.461-7.853 26.977-.474 9.794 8.63-3.372 1.785-12.198 6.604-15.938 3.856-5.283-3.879 3.109-10.529 6.144-12.486Zm316.165 26.397c-2.841-5.029-6.932-12.056-11.638-7.312-1.829 1.84-3.713 9.526-4.95 12.412-4.336 10.1-8.943 21.378-18.082 28.144-5.47 4.049-24.532 10.586-19.749-1.77 4.077-10.543 17.587-19.877 25.734-27.523 3.776-3.546 12.74-10.825 14.706-15.969 1.498-3.922-2.107-13.15-8.577-11.067-2.937.947-3.317 9.531-4.391 11.976-1.699 3.86-4.698 6.885-7.349 10.093-4.202 5.087-8.645 12.546-15.237 14.942-7.926 2.886-10.375-1.756-6.3-8.874 3.986-6.955 12.992-11.434 18.501-17.143 2.741-2.842 11.374-11.155 9.278-15.403-4.565-9.252-10.94 4.282-13.209 7.032-1.778 2.152-12.567 16.042-15.934 13.389-4.047-3.188 5.016-16.028 6.685-18.772 3.52-5.788 5.059-5.464.602-8.556-2.546-1.77-7.852-3.287-10.666-2.887-6.907.981-13.973 7.355-21.094 9.045-2.947.701-12.987.544-14.203 5.056-1.874 6.946 28.329 23.591 12.416 27.379-12.3 2.923-23.863-16.123-33.973-8.288-15.979 12.388 9.394 19.925 19.141 22.493 4.37 1.153 18.761 1.652 16.659 9.38-1.711 6.283-13.643 4.898-18.243 4.126-8.715-1.459-16.604-5.678-24.753-8.813-2.198-.844-11.036-5.639-13.687-4.606-3.796 1.485-8.396 16.308-6.185 19.803 2.726 4.304 17.705 2.802 22.769 2.913 8.558.182 19.052-.127 26.344 5.203 8.052 5.884-1.901 6.801-7.401 6.564-11.868-.516-23.982-4.714-35.611-6.988-4.056-.796-10.095-2.958-14.126-2.403-6.103.842-4.817 1.265-2.308 6.249 5.596 11.124 11.278 12.375 23.658 13.239 5.647.391 30.354-2.86 32.297 4.676-6.07 4.778-20.795 2.165-27.959 2.063-5.242-.076-13.739 1.132-18.296-1.401-6.205-3.458-14.053-16.352-18.602-21.526-8.069-9.179-16.012-18.312-24.844-26.795 9.637 1.368 18.662 4.421 28.425 2.009 10.672-2.639 20.901-9.769 22.477-21.24.576-4.197-.123-8.506-.423-12.691-.098-1.337-.033-2.711-.193-4.046-.699-5.797-.216-7.686-4.2-3.489-4.533 4.775-7.68 15.645-15.474 17.666-8.629 2.241-4.001-4.225-.493-8.001 8.663-9.326 18.139-17.439 19.573-31.246.782-7.53.344-15.793-1.017-23.303-1.309-7.217-2.612-6.998-5.052-1.085-5.295 12.825-13.55 23.391-24.524 31.967-2.103 1.646-6.82 5.67-9.995 3.392-2.874-2.059-.786-5.957-.004-8.902 1.722-6.508 4.204-12.54 6.649-18.795 3.22-8.239 8.823-19.355 9.051-28.23.15-5.763-4.519-8.237-8.643-11.848-4.822-4.225-9.148-8.726-12.888-13.946-2.607-3.637-5.416-9.092-9.341-11.481-6.093-3.711-4.728.918-4.268 5.549.368 3.699 5.717 40.229-2.95 38.352-8.601-1.86-4.98-36.241-6.173-43.788-1.583-9.998-15.467-8.64-23.868-10.466-4.43-.965-8.49-1.47-12.692-3.104-1.591-.619-3.395-3.316-5.182-2.503-4.06 1.843 12.311 16.879 8.057 22.208-7.182 8.996-14.428-14.763-16.484-19.097-1.728-3.645-3.792-7.914-6.214-11.082-3.744-4.893-4.25-3.712-9.76-2.072-5.511 1.64-18.671 1.5-22.833 5.143-4.023 3.524 1.111 6.108 3.899 9.313 2.641 3.032 11.199 13.321 3.986 15.453-2.605.771-12.058-6.922-14.506-8.504-5.198-3.36-4.077-2.594-8.441-1.493-5.071 1.278-10.779 2.918-15.657 4.645-6.118 2.168-7.575 3.197-2.99 7.58 5.377 5.135 13.428 8.228 16.076 15.574 1.288 3.173.44 6.722-3.567 6.785-4.275.07-6.221-5.766-7.866-8.893-2.084-3.959-5.996-13.269-11.07-14.1-3.171-.52-7.083 3.31-9.765 4.7-1.588.822-8.739 2.956-9.315 5.162-.632 2.423 7.616 7.675 9.853 10.258 5.706 6.59 11.77 14.731 13.928 22.663 1.666 12.947-13.325-2.785-15.689-6.712-2.622-4.354-11.036-26.866-18.569-24.586-2.05.621-3.318 5.619-4.996 7.255-2.056 2.004-4.696 2.81-7.165 4.054-3.659 1.845-7.321 3.69-10.828 5.776-1.084.644-4.03 2.517-4.617 2.942-.442.321-1.42.11-1.957.513-3.669 2.763-5.381 8.351-8.727 11.71-1.502 1.507-8.177 5.623-7.686 7.758.447 1.946 32.224 3.472 36.985 4 3.62.401 18.821-.234 20.678 3.303 1.814 3.46-1.258 4.678-4.247 5.824-7.42 2.844-16.768 3.516-24.576 4.913-5.516.987-28.104 2.391-31.03 7.873-3.021 5.66.652 9.535 4.867 10.312 4.614.853 11.279-1.095 15.788-1.745 3.674-.531 27.12-6.341 28.326-.934 1.31 5.881-26.72 10.816-29.496 11.563-5.303 1.426-14.252 1.682-18.932 4.407-4.194 2.446-2.627 2.73-1.462 6.747 4.025 13.883 5.455 11.169 17.729 8.049 4.698-1.194 10.733-3.33 15.217-.754 5.356 3.072 5.065 6.922.275 9.573-3.292 1.824-10.163 2.253-13.85 2.791-4.308.631-8.674.849-13.024.898-1.279.015-6.874-.915-8.092-.092-4.786 3.23 6.79 20.055 11.788 20.71 2.426.319 6.368-1.335 8.776-1.801 8.415-1.639 16.973-2.507 25.42-4.065 4.756-.877 27.025-7.388 23.035 4.146-2.205 6.372-18.314 9.584-23.657 11.405a233.915 233.915 0 0 1-15.545 4.706c-4.905 1.299-7.761.766-4.495 6.193 3.325 5.523 23.13 22.374 29.347 21.839 5.101-.44 3.206-2.8 8.93.605 2.101 1.252 4.232 3.313 6.054 4.934 6.999 6.215 14.194 15.182 23.965 16.921 20.887 3.718 49.41-24.227 62.895-37.208 2.68-2.578 12.92-15.226 17.904-12.399 5.238 2.968-3.849 14.778-5.654 17.045-10.058 12.64-22.592 24.773-37.485 31.349-3.967 1.75-15.081 3.429-18.84 6.522-3.728 3.063.085 4.05 4.043 6.658 8.44 5.553 19.722 13.746 30.095 10.342 13.657-4.483 20.986-18.807 28.623-30.051 4.237-6.235 24.088-35.69 24.351-12.593.127 11.498-7.159 24.66-14.996 32.566-1.465 1.476-10.939 6.198-10.74 7.32.303 1.704 5.982 2.436 7.019 2.658 10.052 2.162 40.244 5.108 44.477-7.835 2.905-8.879-.634-23.069-1.883-31.998-.389-2.775-2.331-7.231 1.656-8.114 5.106-1.132 9.483 16.709 9.866 19.535.787 5.813-.089 11.87-2.292 17.865-.968 2.635-3.622 4.987-.16 5.399 1.255.148 8.277-6.535 9.378-7.651 5.6-5.701 5.98-12.121 5.522-19.678-1.244-20.393-10.73-40.274-21.764-57.234 13.193 13.684 25.781 27.852 37.962 42.447 3.044 3.647 5.184 8.109 8.187 11.629 4.333 5.074 9.667 9.2 14.175 14.618-1.327-.134-12.82-3.23-13.153-.099-.302 2.849 9.445 7.262 11.442 8.317 8.988 4.761 12.526 5.177 19.592 13.796 17.584 21.456 33.65 43.7 49.387 66.523 7.691 11.154 15.791 22.144 22.563 33.892 3.398 5.891 6.124 12.182 8.708 18.465 1.777 4.32 4.008 17.364 9.547 18.749 6.438 1.613 4.861-5.474 3.553-8.813-2.949-7.528-5.093-14.856-7.192-22.713-3.413-12.779-5.983-25.767-9.713-38.473-4.655-15.855-8.489-31.842-12.328-47.906-2.492-10.428-4.634-21.03-6.237-31.635-1.101-7.283-.825-15.082-2.779-22.219 7.609 6.856 6.128 19.246 18.833 20.132 9.819.685 16.914-7.239 22.531-14.232 4.58-5.704 11.164-14.323 12.053-21.815 1.06-8.941-6.433-2.547-12.017-.609-3.604 1.251-13.54 6.968-16.505 3.554-4.147-4.776 10.653-10.982 13.514-12.801 6.294-3.997 13.273-8.853 18.067-14.709 1.893-2.315 9.736-27.453 1.034-24.037-1.104.433-2.642 3.946-3.532 5.182-4.131 5.73-8.823 10.9-13.887 15.812-5.52 5.351-17.57 17.944-26.773 15.217 3.73-11.293 19.348-17.181 27.79-24.586 5.426-4.757 10.123-10.011 13.349-16.531 1.603-3.244 5.68-12.331 3.725-15.779Z" clip-rule="evenodd"/></svg>